<svg width="17" height="15" viewBox="0 0 17 15" fill="none" xmlns="http://www.w3.org/2000/svg">
<path d="M1.98721 3.7885C2.09696 3.86824 2.46729 4.13237 2.57528 4.20096L4.71012 5.66817C4.73271 5.68459 4.74827 5.71069 4.74389 5.73709L4.46766 12.7222C4.45339 12.9387 4.55558 13.1511 4.72989 13.2777L5.49492 13.8335C5.67569 13.9649 5.86836 13.8287 5.92575 13.6139L7.65758 7.82935C7.67192 7.77566 7.73381 7.75158 7.779 7.78441L11.7723 10.5969C11.8586 10.6547 11.9079 10.7497 11.9126 10.8518L12.0516 13.1721C12.057 13.3684 12.1571 13.5496 12.3153 13.6645L12.8576 14.0585C12.948 14.1242 13.0726 14.0816 13.1045 13.9766L14.0734 11.2922C14.1141 11.1344 14.2149 10.9956 14.3525 10.9081L16.606 9.15719C16.6961 9.09437 16.698 8.96265 16.6077 8.89698L16.0686 8.50532C15.9104 8.39041 15.7048 8.35442 15.5188 8.40673L13.2301 8.99775C13.1315 9.02479 13.0227 9.00489 12.9443 8.94303L9.07917 6.00168C9.03632 5.96561 9.03776 5.90254 9.08438 5.87231L14.053 2.43449C14.2395 2.31354 14.3095 2.08821 14.1288 1.95688L13.3637 1.40105C13.1862 1.27206 12.9559 1.24283 12.7544 1.3233L6.19561 3.73897C6.16863 3.74895 6.14222 3.74457 6.11963 3.72815L4.06453 2.15119C3.9627 2.06734 3.60028 1.7991 3.49053 1.71936C2.06053 0.680402 0.821315 0.485327 0.406202 1.05668C-0.00891164 1.62804 0.553979 2.7472 1.98721 3.7885Z" fill="#B4B9BB"/>
</svg>
