<svg width="13" height="14" viewBox="0 0 13 14" fill="none" xmlns="http://www.w3.org/2000/svg">
<path d="M4.5 6H3.16667V7.33333H4.5V6ZM7.16667 6H5.83333V7.33333H7.16667V6ZM9.83333 6H8.5V7.33333H9.83333V6ZM11.1667 1.33333H10.5V0H9.16667V1.33333H3.83333V0H2.5V1.33333H1.83333C1.09333 1.33333 0.506667 1.93333 0.506667 2.66667L0.5 12C0.5 12.7333 1.09333 13.3333 1.83333 13.3333H11.1667C11.9 13.3333 12.5 12.7333 12.5 12V2.66667C12.5 1.93333 11.9 1.33333 11.1667 1.33333ZM11.1667 12H1.83333V4.66667H11.1667V12Z" fill="#818689"/>
</svg>
