<svg width="10" height="17" viewBox="0 0 10 17" fill="none" xmlns="http://www.w3.org/2000/svg">
<path d="M3.45586 0.729492C3.0207 0.729492 2.66422 1.08783 2.66314 1.52222L2.65384 4.70447H2.12416C1.39584 4.70447 0.801758 5.29855 0.801758 6.02686V13.9644C0.801758 14.6927 1.39584 15.2862 2.12416 15.2862H8.47571C9.20403 15.2862 9.79811 14.6927 9.79811 13.9644V6.02686C9.79811 5.29852 9.20403 4.70447 8.47571 4.70447H7.94603L7.95383 1.52429C7.95493 1.08835 7.59627 0.729523 7.16111 0.729523L3.45586 0.729492ZM3.45586 1.25867H7.16106C7.31222 1.25867 7.42498 1.37186 7.42461 1.52222L7.41681 4.70447H6.35801V4.17529C6.35801 3.88672 6.11743 3.64612 5.82884 3.64612H4.77051C4.48193 3.64612 4.24083 3.88669 4.24083 4.17529V4.70447H3.18301L3.19231 1.52429C3.19268 1.37234 3.30471 1.25867 3.45586 1.25867ZM4.77051 4.17526H5.82884V4.70444H4.77051V4.17526ZM3.44449 7.08154C3.51555 7.08087 3.5839 7.1088 3.63415 7.15903C3.6844 7.20929 3.71234 7.27762 3.71166 7.34869V12.9055C3.71172 13.0516 3.59324 13.1701 3.44708 13.1701C3.30091 13.1701 3.18243 13.0516 3.18243 12.9055L3.18249 7.34869C3.1811 7.20258 3.29839 7.08298 3.44449 7.08154ZM5.29606 7.08154C5.36712 7.08087 5.43547 7.1088 5.48572 7.15903C5.53597 7.20929 5.56391 7.27762 5.56323 7.34869V12.9055C5.56329 13.0516 5.44481 13.1701 5.29865 13.1701C5.15248 13.1701 5.034 13.0516 5.034 12.9055L5.03406 7.34869C5.03267 7.20258 5.14996 7.08298 5.29606 7.08154ZM7.14763 7.08154C7.21905 7.08032 7.28793 7.10797 7.33864 7.15829C7.38934 7.20859 7.41755 7.27725 7.41687 7.34869V12.9055C7.41693 13.0516 7.29844 13.1701 7.15228 13.1701C7.00612 13.1701 6.88763 13.0516 6.88763 12.9055L6.8877 7.34869C6.8863 7.20337 7.00234 7.08411 7.14763 7.08154ZM2.13243 15.8107V16.0748C2.13243 16.3634 2.37301 16.604 2.6616 16.604H3.19077C3.47935 16.604 3.71993 16.3634 3.71993 16.0748V15.8107H2.13243ZM6.89596 15.8107V16.0748C6.89596 16.3634 7.13654 16.604 7.42513 16.604H7.95481C8.2434 16.604 8.48398 16.3634 8.48398 16.0748V15.8107H6.89596Z" fill="#818689"/>
</svg>
